<svg width="74" height="74" viewBox="0 0 74 74" fill="none" xmlns="http://www.w3.org/2000/svg">
<path d="M37 74C57.4345 74 74 57.4345 74 37C74 16.5655 57.4345 0 37 0C16.5655 0 0 16.5655 0 37C0 57.4345 16.5655 74 37 74Z" fill="url(#paint0_linear_8_1414)"/>
<path d="M38.4402 66.5168C38.0573 66.5168 37.7379 66.216 37.719 65.8294C37.6995 65.4307 38.0069 65.0917 38.4055 65.0723C39.7872 65.0048 41.1727 64.8338 42.5241 64.5643C42.9153 64.4861 43.2962 64.7402 43.3742 65.1316C43.4523 65.523 43.1983 65.9037 42.8069 65.9817C41.3859 66.2653 39.9287 66.4451 38.476 66.516C38.4641 66.5165 38.4521 66.5168 38.4402 66.5168ZM32.0746 66.1303C32.034 66.1303 31.9927 66.1268 31.9512 66.1197C30.5186 65.873 29.0938 65.5175 27.717 65.0629C27.338 64.9378 27.1324 64.529 27.2574 64.1501C27.3826 63.7711 27.7904 63.565 28.1702 63.6904C29.4794 64.1227 30.834 64.4608 32.1963 64.6954C32.5896 64.7632 32.8535 65.1369 32.7859 65.5302C32.7254 65.882 32.42 66.1303 32.0746 66.1303ZM48.7446 64.0576C48.4682 64.0576 48.2044 63.8981 48.0843 63.6296C47.9216 63.2652 48.0851 62.8377 48.4493 62.675C49.709 62.112 50.9387 61.4495 52.1042 60.7053C52.4402 60.4905 52.8874 60.5891 53.1022 60.9256C53.3168 61.262 53.2182 61.7088 52.8819 61.9236C51.6564 62.7059 50.3634 63.4027 49.039 63.9945C48.9431 64.0372 48.843 64.0576 48.7446 64.0576ZM22.1468 62.4368C22.0199 62.4368 21.8912 62.4034 21.7747 62.333C20.5323 61.5849 19.3343 60.7369 18.2138 59.8128C17.9059 59.5589 17.8621 59.1035 18.1161 58.7955C18.37 58.4876 18.8254 58.4437 19.1334 58.6978C20.1992 59.5768 21.3387 60.3833 22.5202 61.0948C22.8622 61.3006 22.9725 61.7448 22.7665 62.0867C22.6309 62.3119 22.3919 62.4368 22.1468 62.4368ZM57.4589 58.0331C57.2748 58.0331 57.0907 57.9631 56.9497 57.8231C56.6666 57.5418 56.665 57.0844 56.9463 56.8011C57.9203 55.8204 58.8288 54.7601 59.647 53.6496C59.8836 53.3281 60.3361 53.2595 60.6573 53.4962C60.9787 53.733 61.0472 54.1853 60.8106 54.5066C59.9508 55.6742 58.9956 56.7888 57.9719 57.8194C57.8304 57.962 57.6446 58.0331 57.4589 58.0331ZM14.2298 55.4029C14.0143 55.4029 13.8011 55.3069 13.6587 55.1236C12.767 53.9765 11.9536 52.7539 11.2409 51.4898C11.0449 51.1421 11.1677 50.7014 11.5155 50.5054C11.8629 50.3093 12.3036 50.4324 12.4999 50.78C13.1777 51.9825 13.9516 53.1454 14.7997 54.2367C15.0446 54.5517 14.9878 55.0057 14.6726 55.2507C14.5408 55.3532 14.3847 55.4029 14.2298 55.4029ZM63.4181 49.2805C63.3214 49.2805 63.223 49.261 63.1287 49.2197C62.7631 49.0597 62.5964 48.6335 62.7566 48.2679C63.3103 47.003 63.7735 45.6859 64.1331 44.3536C64.237 43.9683 64.6345 43.7402 65.0191 43.8443C65.4044 43.9483 65.6325 44.3449 65.5284 44.7303C65.15 46.1318 64.6629 47.517 64.0803 48.8475C63.9618 49.1188 63.6965 49.2805 63.4181 49.2805ZM9.37324 45.9868C9.0622 45.9868 8.77488 45.7843 8.68122 45.4711C8.2654 44.0809 7.95047 42.6467 7.74509 41.2082C7.68872 40.8132 7.96333 40.4471 8.35848 40.3907C8.75464 40.334 9.11958 40.609 9.17595 41.0041C9.37107 42.3718 9.67039 43.7353 10.0657 45.0569C10.1802 45.4393 9.96278 45.842 9.58049 45.9565C9.51155 45.977 9.44174 45.9868 9.37324 45.9868ZM65.8023 38.9609C65.792 38.9609 65.7816 38.9607 65.7713 38.9603C65.3724 38.9435 65.063 38.6066 65.0798 38.2078L65.0822 38.1476C65.0981 37.7588 65.1062 37.3655 65.1062 36.9793C65.1062 35.9854 65.0533 34.9826 64.9491 33.999C64.9069 33.6021 65.1945 33.2462 65.5914 33.204C65.9907 33.1618 66.3443 33.4497 66.3862 33.8465C66.4959 34.8806 66.5515 35.9345 66.5515 36.9792C66.5515 37.385 66.543 37.7981 66.5264 38.2071L66.5236 38.2686C66.5074 38.6569 66.1873 38.9609 65.8023 38.9609ZM8.26179 35.4531C8.24271 35.4531 8.22363 35.4524 8.20456 35.4509C7.80666 35.4197 7.50936 35.072 7.54058 34.6741C7.65418 33.2222 7.87589 31.7712 8.1995 30.361C8.28867 29.9719 8.67761 29.7289 9.06538 29.8182C9.45432 29.9076 9.69742 30.2952 9.6081 30.6843C9.30054 32.0254 9.08967 33.4058 8.98141 34.7871C8.95178 35.1655 8.63526 35.4531 8.26179 35.4531ZM64.2926 28.415C63.992 28.415 63.7113 28.2259 63.6087 27.9255C63.163 26.6193 62.6149 25.3346 61.9797 24.1068C61.7962 23.7523 61.9349 23.3162 62.2894 23.1328C62.6437 22.9494 63.0799 23.0881 63.2633 23.4425C63.9315 24.7338 64.5079 26.085 64.9767 27.4588C65.1056 27.8364 64.9039 28.2472 64.5262 28.3761C64.4487 28.4024 64.37 28.415 64.2926 28.415ZM11.0125 25.2259C10.9073 25.2259 10.8006 25.2029 10.6996 25.1542C10.34 24.9811 10.1888 24.5492 10.362 24.1896C10.991 22.8835 11.7237 21.6122 12.5401 20.4107C12.7645 20.0806 13.2137 19.9947 13.544 20.2191C13.8741 20.4434 13.9598 20.8929 13.7355 21.223C12.9591 22.3656 12.2621 23.5746 11.6641 24.8166C11.5398 25.0752 11.2816 25.2259 11.0125 25.2259ZM59.0824 19.1897C58.8762 19.1897 58.6715 19.102 58.5286 18.9317C57.6405 17.8742 56.6663 16.8733 55.6331 15.9573C55.3345 15.6925 55.307 15.2358 55.5718 14.9372C55.8367 14.6386 56.2933 14.611 56.592 14.8759C57.678 15.8387 58.702 16.8906 59.6356 18.0022C59.8921 18.3079 59.8525 18.7638 59.547 19.0203C59.4114 19.1342 59.2465 19.1897 59.0824 19.1897ZM17.2829 16.6919C17.09 16.6919 16.8978 16.6153 16.7556 16.4636C16.4826 16.1723 16.4973 15.715 16.7886 15.4422C17.8477 14.4491 18.9896 13.5262 20.1826 12.6994C20.5108 12.4719 20.961 12.5537 21.1882 12.8816C21.4156 13.2097 21.3341 13.6598 21.006 13.8873C19.871 14.6738 18.7847 15.5519 17.777 16.4965C17.6375 16.6272 17.46 16.6919 17.2829 16.6919ZM50.9023 12.4613C50.7843 12.4613 50.6647 12.4324 50.5541 12.3713C49.3442 11.7043 48.0749 11.1227 46.7814 10.643C46.4071 10.5042 46.2163 10.0884 46.355 9.71409C46.4938 9.34004 46.9094 9.14868 47.2839 9.28787C48.6444 9.79243 49.9794 10.4039 51.2519 11.1056C51.6014 11.2983 51.7285 11.738 51.5359 12.0873C51.4042 12.3263 51.1571 12.4613 50.9023 12.4613ZM26.2072 10.9835C25.9213 10.9835 25.6506 10.8128 25.5369 10.5316C25.3873 10.1616 25.5659 9.74025 25.9361 9.59066C27.2837 9.04592 28.6832 8.59802 30.0954 8.25938C30.4843 8.16616 30.8737 8.4055 30.9666 8.79372C31.0596 9.18193 30.8204 9.57187 30.4324 9.66495C29.0895 9.98682 27.7591 10.4128 26.4778 10.9308C26.389 10.9665 26.2974 10.9835 26.2072 10.9835ZM40.844 9.14984C40.8121 9.14984 40.78 9.14767 40.7475 9.14348C39.8913 9.0293 39.0169 8.95342 38.1484 8.91787C37.634 8.89691 37.1136 8.88968 36.6029 8.89648C36.1966 8.8998 35.8759 8.58255 35.8707 8.18336C35.8655 7.78416 36.1848 7.45651 36.584 7.45131C37.1202 7.44408 37.667 7.45174 38.2075 7.47371C39.1201 7.51114 40.039 7.59093 40.9387 7.71089C41.3343 7.76364 41.6122 8.12714 41.5595 8.52272C41.5109 8.88578 41.2005 9.14984 40.844 9.14984Z" fill="#9ACDAE"/>
<path d="M24.5501 65.055L19.8254 69.7797C18.2168 68.9356 16.6789 67.9774 15.2221 66.9136C13.6062 65.7357 12.0886 64.4291 10.6852 63.0098C9.64895 61.962 8.67625 60.8534 7.77148 59.6885V59.6871L7.79172 59.6683L10.7329 56.7256C10.7416 56.717 10.7517 56.7083 10.7604 56.6996L13.4776 53.9824L24.5501 65.055Z" fill="#C17E62"/>
<path d="M24.4534 65.1518L19.8255 69.7797C18.2169 68.9356 16.679 67.9774 15.2222 66.9136L20.0076 62.1282L22.7407 64.4999L24.4534 65.1518Z" fill="#A26D5A"/>
<path d="M14.5153 58.2923C14.5153 58.8603 14.3 59.4284 13.8664 59.8605L10.9252 62.8017C10.8486 62.8783 10.7691 62.9477 10.6852 63.0098C9.64894 61.962 8.67625 60.8534 7.77148 59.6885C7.77871 59.6813 7.78449 59.6755 7.79172 59.6683L10.7329 56.7256C10.7416 56.717 10.7517 56.7083 10.7604 56.6996C11.6276 55.8613 13.0107 55.87 13.8664 56.7256C14.3 57.1592 14.5153 57.7258 14.5153 58.2923Z" fill="#D48D77"/>
<path d="M36.0237 59.272L31.3791 63.9165C28.7332 66.5624 24.4421 66.5624 21.7961 63.9165L12.6694 54.7898L22.1054 45.3538L36.0237 59.272Z" fill="#C17E62"/>
<path d="M32.7335 55.9821L22.1053 45.3539L19.3933 48.0659L30.0216 58.6941C28.8952 59.8205 27.7062 61.0095 27.0769 61.6388C24.0244 64.6913 20.0077 62.1283 20.0077 62.1283L21.7959 63.9165C24.4418 66.5624 28.7329 66.5624 31.3789 63.9165L33.3114 61.9839L36.0234 59.272L32.7335 55.9821Z" fill="#A26D5A"/>
<path d="M30.0216 58.6941L26.9701 61.7456C25.96 62.7557 24.3224 62.7557 23.3123 61.7456C22.3022 60.7355 22.3022 59.0979 23.3123 58.0878L26.3638 55.0363L30.0216 58.6941Z" fill="#D48D77"/>
<path d="M39.9899 59.1236L29.4986 53.0664C28.1954 52.314 27.7488 50.6474 28.5012 49.3442L49.3025 13.3154C50.0549 12.0122 51.7215 11.5656 53.0247 12.318L63.5159 18.3752C64.8192 19.1276 65.2658 20.7942 64.5134 22.0974L43.7121 58.1262C42.9597 59.4296 41.2933 59.8762 39.9899 59.1236Z" fill="#C3EAD0"/>
<path d="M57.9016 25.8905L49.3231 20.9377C48.7849 20.6269 48.6005 19.9387 48.9112 19.4003L51.311 15.2437C51.6217 14.7055 52.31 14.5211 52.8484 14.8318L61.4269 19.7846C61.9651 20.0953 62.1495 20.7836 61.8388 21.322L59.439 25.4785C59.1283 26.0168 58.4398 26.2012 57.9016 25.8905Z" fill="#50755C"/>
<path d="M53.0247 34.3378L44.4462 29.385C43.9079 29.0743 43.7235 28.386 44.0342 27.8477L46.434 23.6911C46.7448 23.1529 47.4332 22.9684 47.9714 23.2792L56.5499 28.232C57.0882 28.5427 57.2726 29.231 56.9619 29.7694L54.5621 33.9259C54.2512 34.4642 53.5629 34.6486 53.0247 34.3378Z" fill="#53B976"/>
<path d="M48.1477 42.7852L39.5692 37.8324C39.031 37.5216 38.8466 36.8334 39.1573 36.295L41.5571 32.1384C41.8678 31.6002 42.5561 31.4158 43.0945 31.7265L51.673 36.6793C52.2112 36.99 52.3956 37.6783 52.0849 38.2167L49.6851 42.3733C49.3742 42.9115 48.686 43.0959 48.1477 42.7852Z" fill="#78C795"/>
<path d="M43.2705 51.2326L34.692 46.2798C34.1538 45.969 33.9694 45.2808 34.2801 44.7424L36.6799 40.5858C36.9906 40.0476 37.6789 39.8632 38.2173 40.1739L46.7958 45.1267C47.334 45.4374 47.5184 46.1257 47.2077 46.6641L44.8079 50.8207C44.4972 51.3589 43.8089 51.5433 43.2705 51.2326Z" fill="#9ACDAE"/>
<path d="M39.1596 59.3956L27.458 56.2601C26.0043 55.8706 25.1418 54.3764 25.5313 52.9229L36.2989 12.738C36.6884 11.2843 38.1825 10.4217 39.6361 10.8112L51.3376 13.9467C52.7913 14.3362 53.6539 15.8304 53.2644 17.2839L42.4968 57.4688C42.1073 58.9225 40.6131 59.7851 39.1596 59.3956Z" fill="#E9FFF0"/>
<path d="M47.8598 22.6589L38.2917 20.0953C37.6913 19.9344 37.335 19.3172 37.4959 18.7169L38.7381 14.0809C38.899 13.4805 39.5162 13.1242 40.1165 13.2851L49.6847 15.8488C50.285 16.0096 50.6413 16.6268 50.4804 17.2272L49.2382 21.8632C49.0773 22.4635 48.4602 22.8198 47.8598 22.6589Z" fill="#DD5E26"/>
<path d="M45.3354 32.0808L35.7673 29.5171C35.1669 29.3563 34.8106 28.7391 34.9715 28.1387L36.2137 23.5028C36.3746 22.9024 36.9917 22.5461 37.5921 22.707L47.1602 25.2707C47.7606 25.4315 48.1169 26.0487 47.956 26.6491L46.7138 31.285C46.5529 31.8853 45.9358 32.2417 45.3354 32.0808Z" fill="#EA792E"/>
<path d="M42.8107 41.5025L33.2426 38.9388C32.6422 38.778 32.286 38.1608 32.4468 37.5604L33.6891 32.9244C33.8499 32.3241 34.4671 31.9678 35.0675 32.1287L44.6356 34.6923C45.236 34.8532 45.5922 35.4704 45.4314 36.0707L44.1891 40.7067C44.0281 41.3071 43.4111 41.6635 42.8107 41.5025Z" fill="#F39E22"/>
<path d="M40.2861 50.9243L30.718 48.3606C30.1176 48.1998 29.7613 47.5826 29.9222 46.9822L31.1644 42.3463C31.3253 41.7459 31.9424 41.3896 32.5428 41.5505L42.1109 44.1142C42.7113 44.275 43.0676 44.8922 42.9067 45.4926L41.6645 50.1285C41.5036 50.7289 40.8865 51.0852 40.2861 50.9243Z" fill="#F9C744"/>
<path d="M38.0635 59.4891H25.9492C24.4444 59.4891 23.2244 58.2691 23.2244 56.7643V15.1618C23.2244 13.6569 24.4444 12.437 25.9492 12.437H38.0635C39.5684 12.437 40.7884 13.6569 40.7884 15.1618V56.7643C40.7884 58.2693 39.5684 59.4891 38.0635 59.4891Z" fill="white"/>
<path d="M36.9593 21.7524H27.0537C26.4322 21.7524 25.9282 21.2486 25.9282 20.627V15.8274C25.9282 15.2059 26.4321 14.7019 27.0537 14.7019H36.9593C37.5808 14.7019 38.0848 15.2057 38.0848 15.8274V20.627C38.0848 21.2484 37.5808 21.7524 36.9593 21.7524Z" fill="#E9465E"/>
<path d="M36.9593 31.5065H27.0537C26.4322 31.5065 25.9282 31.0027 25.9282 30.3811V25.5815C25.9282 24.96 26.4321 24.456 27.0537 24.456H36.9593C37.5808 24.456 38.0848 24.9598 38.0848 25.5815V30.3811C38.0848 31.0027 37.5808 31.5065 36.9593 31.5065Z" fill="#EE6781"/>
<path d="M36.9593 41.2608H27.0537C26.4322 41.2608 25.9282 40.757 25.9282 40.1353V35.3357C25.9282 34.7142 26.4321 34.2103 27.0537 34.2103H36.9593C37.5808 34.2103 38.0848 34.7141 38.0848 35.3357V40.1353C38.0848 40.7568 37.5808 41.2608 36.9593 41.2608Z" fill="#FA80A4"/>
<path d="M36.9593 51.0149H27.0537C26.4322 51.0149 25.9282 50.5111 25.9282 49.8895V45.0899C25.9282 44.4684 26.4321 43.9644 27.0537 43.9644H36.9593C37.5808 43.9644 38.0848 44.4683 38.0848 45.0899V49.8895C38.0848 50.5111 37.5808 51.0149 36.9593 51.0149Z" fill="#EDA8C5"/>
<path d="M38.084 55.1984C38.0557 53.6356 36.7808 52.3798 35.2112 52.3798C34.9124 52.3798 34.6231 52.4257 34.3528 52.5109C33.1847 52.8745 32.3372 53.9641 32.3372 55.2525C32.3372 56.8396 33.6242 58.1266 35.2113 58.1266C36.7984 58.1266 38.0855 56.8396 38.0855 55.2525C38.0855 55.2348 38.0855 55.2159 38.084 55.1984ZM35.2113 56.8693C34.3191 56.8693 33.5944 56.1461 33.5944 55.2525C33.5944 54.5143 34.0906 53.8911 34.7679 53.6992C34.9085 53.6586 35.0572 53.637 35.2113 53.637C36.0792 53.637 36.7876 54.3211 36.8254 55.1796C36.828 55.2039 36.828 55.2283 36.828 55.2526C36.8282 56.1461 36.1035 56.8693 35.2113 56.8693Z" fill="#A583BB"/>
<path d="M38.0838 55.1975C37.8947 55.2326 37.6998 55.2516 37.5012 55.2516C37.2687 55.2516 37.0429 55.2273 36.8253 55.1786C36.7874 54.3201 36.0791 53.636 35.2112 53.636C35.0571 53.636 34.9084 53.6577 34.7677 53.6981C34.5556 53.3413 34.4109 52.9398 34.3528 52.5098C34.6232 52.4247 34.9124 52.3787 35.2112 52.3787C36.7806 52.3787 38.0555 53.6347 38.0838 55.1975Z" fill="#C2AACF"/>
<path d="M20.2929 56.0659C19.8046 56.2478 19.2757 56.3469 18.7249 56.3469H17.5372C15.0509 56.3469 13.0368 54.3326 13.0368 51.8465L13.0359 44.3356C13.0368 41.8504 15.0511 39.8361 17.5364 39.8351H18.7242C19.2769 39.8351 19.8057 39.9342 20.2932 40.1169C22.0055 40.7531 23.2246 42.4021 23.2248 44.3355V51.8472C23.2245 53.7809 22.0043 55.4289 20.2929 56.0659Z" fill="#C17E62"/>
<path d="M21.8547 55.0797C20.9864 55.9206 20.4489 55.3922 19.5941 54.5375C19.0066 53.9499 18.8061 53.115 18.8061 51.8464L18.807 44.3356C18.807 42.402 18.5809 40.7532 20.2931 40.117C22.0053 40.7532 23.2244 42.4022 23.2246 44.3356V51.8473C23.2247 53.1161 22.6994 54.2618 21.8547 55.0797Z" fill="#A26D5A"/>
<path d="M25.996 46.0828L16.0305 46.0838C14.377 46.0829 13.0367 44.7425 13.0356 43.089V42.7841C13.0365 42.3737 13.1192 41.9826 13.2689 41.6273C13.7214 40.5468 14.7874 39.7893 16.0305 39.7893H25.9969C27.24 39.7893 28.306 40.5466 28.7585 41.6273C28.9082 41.9826 28.9907 42.3737 28.9918 42.7841L28.9909 43.0881C28.9909 44.7424 27.6495 46.0836 25.996 46.0828Z" fill="#C17E62"/>
<path d="M31.8508 48.8544C30.6224 50.0828 28.6292 50.0838 27.3999 48.8544L23.8039 45.2584C23.1896 44.6441 22.882 43.8391 22.8831 43.0339C22.8831 42.2278 23.1906 41.4226 23.8049 40.8084C24.1042 40.5091 24.4485 40.2823 24.8156 40.13C25.9587 39.6517 27.3257 39.8785 28.2547 40.8075L31.8508 44.4036C32.4659 45.0187 32.7735 45.8239 32.7726 46.6291C32.7726 47.0422 32.6918 47.4554 32.5294 47.8437C32.3767 48.2108 32.15 48.5551 31.8508 48.8544Z" fill="#C17E62"/>
<path d="M16.8037 54.149C15.6977 54.149 14.801 53.2525 14.801 52.1464V47.7567C14.801 46.6507 15.6976 45.754 16.8037 45.754C17.9096 45.754 18.8063 46.6506 18.8063 47.7567V52.1464C18.8063 53.2525 17.9097 54.149 16.8037 54.149Z" fill="#D48D77"/>
<path d="M32.5289 47.8437C31.3868 48.3211 30.0198 48.0944 29.0898 47.1643L25.4937 43.5682C25.4597 43.5343 25.4266 43.4994 25.3954 43.4644H16.0312C14.7881 43.4644 13.7205 42.707 13.2688 41.6273C13.5553 40.9443 14.0868 40.3888 14.7543 40.0739C15.1418 39.8921 15.5732 39.7893 16.0305 39.7893H25.9969C26.8654 39.7893 27.6449 40.1593 28.1921 40.7487C28.2123 40.7689 28.2343 40.7873 28.2545 40.8075L31.8506 44.4036C32.3885 44.9416 32.6925 45.6256 32.7577 46.3279C32.7678 46.4279 32.7724 46.5281 32.7724 46.6291C32.7721 47.0422 32.6913 47.4554 32.5289 47.8437Z" fill="#D48D77"/>
<path d="M32.7578 46.3279C32.7073 46.3288 32.6578 46.3288 32.6091 46.326L32.6081 46.327C31.836 46.3041 31.0702 45.9975 30.48 45.4071L26.8839 41.811C26.8499 41.777 26.8178 41.7412 26.7856 41.7072H17.4214C16.2591 41.7072 15.2493 41.0444 14.7544 40.0739C15.1419 39.8921 15.5733 39.7893 16.0306 39.7893H25.997C26.8655 39.7893 27.645 40.1593 28.1922 40.7487C28.2124 40.7689 28.2344 40.7873 28.2546 40.8075L31.8507 44.4036C32.3262 44.8791 32.6182 45.4687 32.7247 46.0836C32.7394 46.1644 32.7496 46.2462 32.7578 46.3279Z" fill="#EEA47D"/>
<path d="M32.5072 46.4501C31.9014 47.0559 30.4893 46.6281 29.3546 45.4934L28.4907 44.6295C27.8526 43.9914 27.5984 43.201 27.9077 42.8347C27.9159 42.8228 27.926 42.8126 27.9361 42.8027L28.8588 41.88C28.9415 41.7973 29.0498 41.7479 29.1765 41.7294L31.8509 44.4038C32.3264 44.8793 32.6184 45.4688 32.7249 46.0838C32.6974 46.172 32.6588 46.2528 32.6093 46.3262L32.6083 46.3272C32.5789 46.3711 32.5449 46.4125 32.5072 46.4501Z" fill="#F5B890"/>
<path d="M32.7573 46.3279C32.7069 46.3287 32.6573 46.3287 32.6086 46.326L32.6076 46.327C31.8355 46.304 31.0698 45.9975 30.4795 45.4071L27.907 42.8346C27.9152 42.8226 27.9253 42.8124 27.9355 42.8025L28.8581 41.8798C28.9408 41.7971 29.0491 41.7477 29.1758 41.7292L31.8502 44.4036C32.3257 44.8791 32.6177 45.4686 32.7242 46.0836C32.739 46.1644 32.7491 46.2462 32.7573 46.3279Z" fill="#FBD9A3"/>
<defs>
<linearGradient id="paint0_linear_8_1414" x1="37" y1="0" x2="37" y2="74" gradientUnits="userSpaceOnUse">
<stop stop-color="#15BE79"/>
<stop offset="1" stop-color="#409366"/>
</linearGradient>
</defs>
</svg>
