<svg width="74" height="74" viewBox="0 0 74 74" fill="none" xmlns="http://www.w3.org/2000/svg">
<path d="M37 74C57.4345 74 74 57.4345 74 37C74 16.5655 57.4345 0 37 0C16.5655 0 0 16.5655 0 37C0 57.4345 16.5655 74 37 74Z" fill="url(#paint0_linear_8_1499)"/>
<path d="M39.659 66.9655C39.289 66.9655 38.9737 66.683 38.9401 66.3073C38.9044 65.9099 39.1978 65.5587 39.5952 65.523C40.9993 65.3969 42.403 65.1654 43.7673 64.835C44.1552 64.7409 44.5459 64.9792 44.6398 65.3672C44.7337 65.7551 44.4954 66.1457 44.1076 66.2397C42.6742 66.587 41.1995 66.8301 39.7244 66.9625C39.7023 66.9645 39.6805 66.9655 39.659 66.9655ZM33.1659 66.836C33.1347 66.836 33.1032 66.834 33.0715 66.83C31.6039 66.6386 30.1401 66.3359 28.7207 65.9304C28.337 65.8208 28.1147 65.4208 28.2244 65.037C28.3341 64.6533 28.7338 64.4312 29.1177 64.5407C30.4685 64.9265 31.8615 65.2147 33.2583 65.3968C33.654 65.4484 33.9329 65.811 33.8815 66.2067C33.8341 66.5708 33.5233 66.836 33.1659 66.836ZM50.0434 64.0359C49.7776 64.0359 49.5219 63.8887 49.3956 63.6345C49.218 63.2771 49.3639 62.8433 49.7214 62.6659C50.9804 62.0405 52.205 61.3148 53.3608 60.5089C53.6885 60.2805 54.1387 60.361 54.3669 60.6884C54.5951 61.0159 54.5148 61.4663 54.1874 61.6945C52.9732 62.541 51.6869 63.3034 50.3641 63.9603C50.2611 64.0116 50.1514 64.0359 50.0434 64.0359ZM22.9098 63.4891C22.7925 63.4891 22.6734 63.4605 22.5632 63.4001C21.2688 62.6907 20.0151 61.878 18.8369 60.9844C18.519 60.7432 18.4567 60.2899 18.6979 59.972C18.9391 59.654 19.3924 59.5918 19.7103 59.8329C20.832 60.6838 22.0256 61.4574 23.2577 62.1327C23.6078 62.3245 23.736 62.7637 23.5442 63.1138C23.4128 63.3534 23.1652 63.4891 22.9098 63.4891ZM58.6618 57.544C58.4875 57.544 58.3127 57.4812 58.174 57.3543C57.8796 57.0848 57.8595 56.6276 58.1289 56.3334C59.0796 55.2949 59.9607 54.1778 60.7478 53.0129C60.9713 52.6822 61.4205 52.5954 61.7511 52.8187C62.0818 53.0421 62.1688 53.4913 61.9454 53.822C61.1188 55.0453 60.1934 56.2188 59.195 57.3092C59.0525 57.4651 58.8573 57.544 58.6618 57.544ZM14.5611 56.6596C14.3557 56.6596 14.1517 56.5724 14.0087 56.4033C13.0541 55.2734 12.1759 54.0635 11.3988 52.8072C11.1888 52.4679 11.2937 52.0224 11.6331 51.8124C11.9726 51.6024 12.4179 51.7072 12.6279 52.0467C13.3679 53.2427 14.2038 54.3946 15.1128 55.4705C15.3703 55.7753 15.332 56.2313 15.0271 56.4889C14.8915 56.6036 14.7259 56.6596 14.5611 56.6596ZM64.3638 48.3901C64.2765 48.3901 64.1877 48.3742 64.1015 48.3405C63.7296 48.1954 63.5458 47.7764 63.6909 47.4045C64.2021 46.0942 64.6191 44.734 64.9303 43.3621C65.0186 42.9729 65.4058 42.7288 65.7948 42.8172C66.1841 42.9056 66.428 43.2926 66.3397 43.6818C66.0128 45.1237 65.5746 46.5528 65.0374 47.9299C64.9258 48.2153 64.6529 48.3901 64.3638 48.3901ZM9.22892 47.2791C8.92902 47.2791 8.64863 47.0909 8.54558 46.7913C8.06487 45.3941 7.68518 43.9482 7.41665 42.4941C7.34423 42.1015 7.60367 41.7247 7.99607 41.6522C8.38833 41.5798 8.76541 41.8391 8.83797 42.2316C9.0935 43.6156 9.45483 44.9914 9.91227 46.3211C10.0421 46.6985 9.84145 47.1098 9.46393 47.2395C9.38617 47.2664 9.30682 47.2791 9.22892 47.2791ZM66.3618 37.7896C66.3611 37.7896 66.3602 37.7896 66.3595 37.7896C65.9603 37.7883 65.6379 37.4638 65.6392 37.0646V37C65.6392 35.5877 65.5354 34.1684 65.3307 32.7817C65.2725 32.3869 65.5452 32.0196 65.9401 31.9614C66.3347 31.9028 66.7022 32.1758 66.7605 32.5707C66.9754 34.027 67.0843 35.5173 67.0843 37V37.0692C67.0832 37.4676 66.7599 37.7896 66.3618 37.7896ZM7.66018 36.6063C7.65107 36.6063 7.64197 36.6062 7.63272 36.6059C7.23396 36.591 6.92264 36.2555 6.93752 35.8566C6.99288 34.3753 7.15822 32.89 7.42864 31.4419C7.50206 31.0497 7.87958 30.7908 8.27169 30.8642C8.66395 30.9375 8.92266 31.315 8.84938 31.7073C8.59183 33.0857 8.43443 34.4999 8.38182 35.9105C8.36723 36.3003 8.0468 36.6063 7.66018 36.6063ZM64.3877 27.116C64.098 27.116 63.8246 26.9405 63.7137 26.6542C63.2056 25.3433 62.5941 24.058 61.8961 22.8338C61.6984 22.4872 61.8192 22.0458 62.166 21.8481C62.5127 21.6502 62.9541 21.7712 63.1517 22.1179C63.885 23.4038 64.5276 24.7545 65.0613 26.1318C65.2056 26.504 65.0209 26.9226 64.6487 27.0668C64.5629 27.1002 64.4745 27.116 64.3877 27.116ZM10.0356 26.0844C9.93987 26.0844 9.84275 26.0654 9.74924 26.0249C9.38285 25.8665 9.21418 25.4411 9.37259 25.0749C9.95794 23.7203 10.6505 22.3967 11.4313 21.1407C11.642 20.8018 12.0873 20.6978 12.4265 20.9085C12.7655 21.1192 12.8694 21.5648 12.6588 21.9037C11.9156 23.0993 11.2564 24.359 10.6994 25.6482C10.5812 25.9213 10.3151 26.0844 10.0356 26.0844ZM58.7017 17.9446C58.5056 17.9446 58.3101 17.8652 58.1675 17.7088C57.2192 16.6691 56.1858 15.6908 55.0958 14.801C54.7866 14.5487 54.7405 14.0934 54.9929 13.7842C55.2452 13.4751 55.7005 13.429 56.0096 13.6813C57.1543 14.6156 58.2398 15.6431 59.2354 16.735C59.5044 17.03 59.4833 17.487 59.1885 17.7558C59.0499 17.8823 58.8756 17.9446 58.7017 17.9446ZM16.0613 17.1397C15.8784 17.1397 15.6954 17.0707 15.5548 16.9323C15.2702 16.6525 15.2663 16.1949 15.5461 15.9103C16.5825 14.8561 17.7058 13.87 18.8848 12.9795C19.2033 12.7388 19.6564 12.8022 19.8969 13.1206C20.1376 13.4391 20.0744 13.8922 19.7559 14.1327C18.6333 14.9807 17.5638 15.9195 16.5767 16.9236C16.4353 17.0676 16.2482 17.1397 16.0613 17.1397ZM50.098 11.4375C49.9896 11.4375 49.8795 11.4131 49.7759 11.3613C48.5163 10.7323 47.1997 10.1931 45.8628 9.75847C45.4833 9.63504 45.2756 9.22732 45.399 8.84778C45.5225 8.46838 45.9299 8.2604 46.3097 8.38398C47.7146 8.8407 49.098 9.4074 50.4215 10.0681C50.7786 10.2464 50.9236 10.6803 50.7452 11.0374C50.6186 11.2909 50.3632 11.4375 50.098 11.4375ZM24.9065 10.96C24.6315 10.96 24.3686 10.802 24.2477 10.5352C24.0831 10.1715 24.2446 9.74329 24.6081 9.57882C25.9561 8.96861 27.3611 8.4548 28.7837 8.05185C29.1677 7.94287 29.5672 8.16617 29.6759 8.55019C29.7847 8.93421 29.5616 9.33369 29.1776 9.44238C27.8237 9.82597 26.4868 10.3148 25.204 10.8955C25.1074 10.9391 25.0062 10.96 24.9065 10.96ZM39.7241 8.48573C39.702 8.48573 39.6796 8.48472 39.6572 8.48269C38.2625 8.35464 36.8293 8.32761 35.4277 8.40349C35.0292 8.42459 34.6887 8.11949 34.667 7.72087C34.6453 7.32225 34.951 6.98174 35.3496 6.9602C36.8209 6.88071 38.3252 6.90875 39.7895 7.04331C40.1869 7.07987 40.4795 7.43166 40.4429 7.82912C40.4085 8.20418 40.0934 8.48573 39.7241 8.48573Z" fill="#4FCAE8"/>
<path d="M36.0441 13.1386L16.1974 47.5144C15.1984 49.2447 15.7907 51.4553 17.5197 52.4536L34.0607 62.0035C34.4838 62.2478 34.9366 62.3963 35.3911 62.4567C36.7989 62.6436 38.2446 61.9863 38.9995 60.679L58.8462 26.3034C59.6003 24.9974 59.4466 23.4167 58.5809 22.2909C58.3012 21.9274 57.9461 21.6098 57.5231 21.3655L40.982 11.8156C39.253 10.8173 37.0424 11.4096 36.0441 13.1386Z" fill="#334353"/>
<path d="M36.0441 13.1386L17.9282 44.5161C31.7726 42.1942 44.5129 33.9345 52.0804 20.827C52.4586 20.172 52.8194 19.5123 53.1628 18.8482L40.9818 11.8156C39.2529 10.8173 37.0423 11.4096 36.0441 13.1386Z" fill="#3E4E60"/>
<path d="M56.2658 23.5434L35.3192 59.8241C34.8291 60.6729 34.8882 61.6895 35.3913 62.4567C36.7991 62.6436 38.2448 61.9863 38.9997 60.679L58.8465 26.3032C59.6005 24.9973 59.4468 23.4165 58.5811 22.2908C57.6651 22.2387 56.756 22.6946 56.2658 23.5434Z" fill="#2E3140"/>
<path d="M25.8174 55.9314C27.1229 55.9314 28.1812 54.873 28.1812 53.5675C28.1812 52.2621 27.1229 51.2037 25.8174 51.2037C24.5119 51.2037 23.4536 52.2621 23.4536 53.5675C23.4536 54.873 24.5119 55.9314 25.8174 55.9314Z" fill="#3F5D77"/>
<path d="M40.0743 14.761L49.4458 20.1716C50.1644 20.5866 51.0834 20.3403 51.4983 19.6217C51.9133 18.9031 51.667 17.9842 50.9484 17.5692L41.5768 12.1585C40.8582 11.7436 39.9393 11.9899 39.5243 12.7085C39.1094 13.4271 39.3557 14.346 40.0743 14.761Z" fill="#3F5D77"/>
<path d="M54.6649 30.5607L50.4151 37.9217C50.2782 38.1587 50.3596 38.4627 50.5968 38.5995L51.1737 38.9327C51.8581 39.3278 52.7312 39.0938 53.1256 38.4106L56.4436 32.6636C56.8381 31.9804 56.6048 31.1062 55.9204 30.711L55.3435 30.3779C55.1064 30.241 54.8025 30.3224 54.6649 30.5607Z" fill="#334353"/>
<path d="M54.6653 30.5607L51.9737 35.2227C51.8361 35.4609 51.9176 35.7648 52.1546 35.9017L52.7316 36.2348C53.4159 36.63 54.2898 36.3948 54.6842 35.7116L56.444 32.6636C56.8384 31.9804 56.6052 31.1062 55.9208 30.711L55.3438 30.3779C55.1068 30.241 54.8029 30.3224 54.6653 30.5607Z" fill="#3E4E60"/>
<path d="M34.0051 18.6324L32.119 21.8994C31.9821 22.1365 31.6782 22.218 31.4412 22.0811L30.8642 21.748C30.1798 21.3528 29.9458 20.4797 30.3403 19.7965L31.2946 18.1435C31.689 17.4603 32.5629 17.2251 33.2472 17.6203L33.8242 17.9534C34.0614 18.0902 34.1427 18.3941 34.0051 18.6324Z" fill="#334353"/>
<path d="M34.0049 18.6324L32.889 20.5653C32.7514 20.8034 32.4474 20.885 32.2104 20.7481L31.6334 20.4149C30.9491 20.0198 30.7158 19.1455 31.1102 18.4623L31.2942 18.1435C31.6886 17.4603 32.5625 17.2251 33.2468 17.6203L33.8238 17.9534C34.0611 18.0902 34.1425 18.3941 34.0049 18.6324Z" fill="#3E4E60"/>
<path d="M30.4497 24.7902L28.5636 28.0572C28.4267 28.2942 28.1228 28.3758 27.8857 28.2389L27.3088 27.9057C26.6244 27.5106 26.3904 26.6375 26.7848 25.9543L27.7392 24.3013C28.1336 23.6181 29.0074 23.3829 29.6918 23.7781L30.2688 24.1112C30.5058 24.2481 30.5873 24.552 30.4497 24.7902Z" fill="#334353"/>
<path d="M30.4495 24.7902L29.3335 26.723C29.1959 26.9612 28.892 27.0427 28.655 26.9059L28.078 26.5727C27.3936 26.1776 27.1604 25.3033 27.5548 24.6201L27.7388 24.3013C28.1332 23.6181 29.007 23.3829 29.6914 23.7781L30.2684 24.1112C30.5055 24.2481 30.5871 24.552 30.4495 24.7902Z" fill="#3E4E60"/>
<path d="M17.606 45.0734L35.6233 13.8673L55.2942 25.2247L37.2769 56.4307L17.606 45.0734Z" fill="#CDE6F6"/>
<path d="M50.7664 33.0693L42.3865 47.5837C38.3775 49.3563 33.6074 49.2558 29.5206 46.8963C25.5665 44.6135 23.1241 40.7184 22.5447 36.5219L31.2657 21.4166C35.1904 19.819 39.785 19.9866 43.739 22.2695C47.8255 24.6291 50.297 28.7111 50.7664 33.0693Z" fill="white"/>
<path d="M29.1855 40.8104L31.5723 38.8039C31.8146 39.0919 32.0847 39.3625 32.3754 39.6081C33.2712 40.365 34.3508 40.872 35.4978 41.0739L34.9568 44.1449C33.2677 43.8473 31.679 43.1021 30.3628 41.9898C29.9373 41.6303 29.5412 41.2336 29.1855 40.8104Z" fill="#528F66"/>
<path d="M27.4899 31.2104L30.4207 32.2755C29.89 33.7356 29.8908 35.3468 30.4227 36.8125L27.4915 37.8762C26.7104 35.7242 26.7098 33.3569 27.4899 31.2104Z" fill="#EFB732"/>
<path d="M37.8018 41.075C39.3273 40.8083 40.7193 40.0086 41.721 38.8232L41.7319 38.8103L44.1136 40.823L44.1027 40.8359C42.6301 42.5787 40.583 43.7543 38.3387 44.1467L37.8018 41.075Z" fill="#22BCE0"/>
<path d="M29.2078 28.2494C30.685 26.5013 32.7391 25.3242 34.9915 24.9353L35.5222 28.008C33.991 28.2724 32.5944 29.0729 31.5896 30.2621L31.5749 30.2796L29.1794 28.2832L29.2078 28.2494Z" fill="#FB8406"/>
<path d="M42.893 32.2853L45.8264 31.2276C46.6029 33.3813 46.5986 35.7485 45.8142 37.8932L42.8857 36.8223C43.4194 35.3635 43.422 33.7521 42.893 32.2853Z" fill="#6C7ED5"/>
<path d="M38.3743 24.9438C40.056 25.2436 41.638 25.9877 42.949 27.0955C43.3795 27.4593 43.7798 27.8611 44.1388 28.29L41.748 30.2918C41.5034 29.9997 41.2304 29.7258 40.9363 29.4772C40.0441 28.7232 38.9689 28.2172 37.8271 28.0137L38.3743 24.9438Z" fill="#E9465E"/>
<defs>
<linearGradient id="paint0_linear_8_1499" x1="37" y1="0" x2="37" y2="74" gradientUnits="userSpaceOnUse">
<stop stop-color="#6C7ED5"/>
<stop offset="1" stop-color="#6021E7"/>
</linearGradient>
</defs>
</svg>
