<svg width="74" height="74" viewBox="0 0 74 74" fill="none" xmlns="http://www.w3.org/2000/svg">
<path d="M37 74C57.4345 74 74 57.4345 74 37C74 16.5655 57.4345 0 37 0C16.5655 0 0 16.5655 0 37C0 57.4345 16.5655 74 37 74Z" fill="url(#paint0_linear_8_1463)"/>
<path d="M40.8872 47.6987H33.1126C31.736 47.6987 30.6201 48.8147 30.6201 50.1912V60.4582H43.3795V50.1912C43.3796 48.8145 42.2637 47.6987 40.8872 47.6987Z" fill="#334353"/>
<path d="M51.6177 60.4581H22.3822C20.8894 60.4581 19.6792 61.6683 19.6792 63.1613C19.6792 64.6542 20.8894 65.8645 22.3822 65.8645H51.6179C53.1107 65.8645 54.321 64.6543 54.321 63.1613C54.3209 61.6683 53.1107 60.4581 51.6177 60.4581Z" fill="#334353"/>
<path d="M46.0135 60.4581H27.9873C27.0668 60.4581 26.3206 61.2043 26.3206 62.1248C26.3206 63.0453 27.0668 63.7915 27.9873 63.7915H46.0135C46.934 63.7915 47.6803 63.0453 47.6803 62.1248C47.6801 61.2043 46.934 60.4581 46.0135 60.4581Z" fill="#3E4E60"/>
<path d="M64.5075 18.2876V48.7881C64.5075 49.6197 64.2603 50.397 63.8332 51.0469C63.2974 51.8786 62.4716 52.4985 61.4957 52.7702C61.1399 52.8732 60.7596 52.9276 60.3756 52.9276H13.6248C13.2332 52.9276 12.8606 52.8732 12.5047 52.7702C11.5288 52.4986 10.7028 51.8786 10.1672 51.0469C9.74007 50.397 9.49292 49.6197 9.49292 48.7881V18.2876C9.49292 17.9036 9.54726 17.5235 9.64829 17.1675C10.0342 15.7871 11.1186 14.6971 12.5047 14.3112C12.8605 14.21 13.2408 14.1556 13.6248 14.1556H60.3756C60.7671 14.1556 61.1397 14.21 61.4957 14.3112C62.8761 14.6971 63.9662 15.7815 64.3521 17.1675C64.4531 17.5234 64.5075 17.9036 64.5075 18.2876Z" fill="#3F5D77"/>
<path d="M15.5188 18.2876V48.7881C15.5188 49.6197 15.2715 50.397 14.8427 51.047C14.307 51.8786 13.481 52.4985 12.5051 52.7702C11.5293 52.4986 10.7033 51.8786 10.1676 51.047C9.74056 50.397 9.49341 49.6197 9.49341 48.7881V18.2876C9.49341 16.3959 10.7633 14.8001 12.5051 14.3112C14.2469 14.8001 15.5188 16.3959 15.5188 18.2876Z" fill="#3E4E60"/>
<path d="M64.5075 18.2876V48.7881C64.5075 49.6197 64.2604 50.397 63.8333 51.047C63.2975 51.8786 62.4717 52.4985 61.4958 52.7702C60.5199 52.4986 59.6939 51.8786 59.1583 51.047C58.7293 50.397 58.4822 49.6197 58.4822 48.7881V18.2876C58.4822 16.3902 59.7595 14.7945 61.4959 14.3112C63.2302 14.7945 64.5075 16.3902 64.5075 18.2876Z" fill="#3F6C8E"/>
<path d="M64.5075 44.4014V48.7881C64.5075 49.6197 64.2603 50.397 63.8332 51.047C63.2974 51.8786 62.4716 52.4985 61.4957 52.7702C61.1399 52.8733 60.7596 52.9276 60.3756 52.9276H13.6248C13.2332 52.9276 12.8606 52.8733 12.5047 52.7702C11.5288 52.4986 10.7028 51.8786 10.1672 51.047C9.74007 50.397 9.49292 49.6197 9.49292 48.7881V44.4014H64.5075Z" fill="#3E4E60"/>
<path d="M15.5188 44.4014V48.7881C15.5188 49.6197 15.2715 50.397 14.8427 51.047C14.307 51.8786 13.481 52.4985 12.5051 52.7702C11.5293 52.4986 10.7033 51.8786 10.1676 51.047C9.74056 50.397 9.49341 49.6197 9.49341 48.7881V44.4014H15.5188Z" fill="#334353"/>
<path d="M64.5075 44.4014V48.7881C64.5075 49.6197 64.2604 50.397 63.8333 51.047C63.2975 51.8786 62.4717 52.4985 61.4958 52.7702C60.5199 52.4986 59.6939 51.8786 59.1583 51.047C58.7293 50.397 58.4822 49.6197 58.4822 48.7881V44.4014H64.5075Z" fill="#3F5D77"/>
<path d="M40.2906 48.6644H33.7095C32.8617 48.6644 32.1743 49.3516 32.1743 50.1996C32.1743 51.0474 32.8616 51.7348 33.7095 51.7348H40.2906C41.1384 51.7348 41.8258 51.0475 41.8258 50.1996C41.8258 49.3518 41.1384 48.6644 40.2906 48.6644Z" fill="#334353"/>
<path d="M49.2682 17.1685H29.6881C28.8562 17.1685 28.1816 16.4942 28.1816 15.6621C28.1816 14.8302 28.856 14.1556 29.6881 14.1556H49.2682C50.1001 14.1556 50.7746 14.83 50.7746 15.6621C50.7746 16.494 50.1002 17.1685 49.2682 17.1685Z" fill="#3F6C8E"/>
<path d="M58.886 47.55H15.1153C13.6743 47.55 12.5061 46.3818 12.5061 44.9408V19.7776C12.5061 18.3366 13.6743 17.1684 15.1153 17.1684H58.8859C60.3269 17.1684 61.4951 18.3366 61.4951 19.7776V44.9408C61.4951 46.3818 60.327 47.55 58.886 47.55Z" fill="#6C53A2"/>
<path d="M47.1813 17.1691C42.5968 30.5194 32.812 41.4518 20.2465 47.551H15.1156C13.6746 47.551 12.5054 46.3817 12.5054 44.9407V19.7779C12.5054 18.3369 13.6746 17.1691 15.1156 17.1691H47.1813Z" fill="#7960BF"/>
<path d="M59.0065 40.012C58.9198 39.8819 58.7998 39.7879 58.6481 39.7287L54.6026 37.9957C54.5072 37.9596 54.4162 37.9408 54.3295 37.9408C54.1835 37.9408 54.0621 37.9856 53.9638 38.0767C53.8655 38.1677 53.8164 38.2863 53.8164 38.4308C53.8164 38.6201 53.9074 38.7545 54.0895 38.8355L57.9384 40.4484L54.0895 42.0629C53.9074 42.1423 53.8164 42.2768 53.8164 42.4661C53.8164 42.6121 53.8655 42.7291 53.9638 42.8202C54.0621 42.9113 54.1835 42.9561 54.3295 42.9561C54.4306 42.9561 54.5217 42.9387 54.6026 42.9026L58.6481 41.1798C58.7998 41.1133 58.9198 41.0179 59.0065 40.8907C59.0947 40.7635 59.138 40.6161 59.138 40.4484C59.138 40.2895 59.0947 40.1435 59.0065 40.012ZM52.4375 40.2577C52.332 40.1594 52.1745 40.1102 51.9635 40.1102H49.7175C49.5064 40.1102 49.3475 40.1594 49.2434 40.2577C49.1379 40.3559 49.0844 40.4889 49.0844 40.6551C49.0844 40.8228 49.1379 40.9543 49.2434 41.0482C49.3475 41.1436 49.5064 41.1899 49.7175 41.1899H51.9635C52.1745 41.1899 52.332 41.1436 52.4375 41.0482C52.543 40.9543 52.5951 40.8228 52.5951 40.6551C52.5951 40.4889 52.543 40.3559 52.4375 40.2577ZM47.7056 40.2577C47.6001 40.1594 47.4425 40.1102 47.2315 40.1102H44.9855C44.7745 40.1102 44.6155 40.1594 44.5114 40.2577C44.4059 40.3559 44.3525 40.4889 44.3525 40.6551C44.3525 40.8228 44.4059 40.9543 44.5114 41.0482C44.6155 41.1436 44.7745 41.1899 44.9855 41.1899H47.2315C47.4425 41.1899 47.6001 41.1436 47.7056 41.0482C47.8111 40.9543 47.8631 40.8228 47.8631 40.6551C47.8631 40.4889 47.8111 40.3559 47.7056 40.2577ZM42.9736 40.2577C42.8681 40.1594 42.7091 40.1102 42.4996 40.1102H40.2521C40.0425 40.1102 39.8836 40.1594 39.778 40.2577C39.6725 40.3559 39.6205 40.4889 39.6205 40.6551C39.6205 40.8228 39.6725 40.9543 39.778 41.0482C39.8836 41.1436 40.0425 41.1899 40.2521 41.1899H42.4996C42.7091 41.1899 42.8681 41.1436 42.9736 41.0482C43.0791 40.9543 43.1312 40.8228 43.1312 40.6551C43.1312 40.4889 43.0791 40.3559 42.9736 40.2577ZM39.6812 35.439C39.5685 35.3407 39.4384 35.2916 39.2939 35.2916C39.1768 35.2916 39.0713 35.3234 38.9773 35.3898C38.882 35.4549 38.814 35.5561 38.7707 35.6948L36.2399 43.6223C36.2182 43.6874 36.2081 43.7524 36.2081 43.8175C36.2081 43.9707 36.2645 44.0964 36.3772 44.1947C36.49 44.293 36.6186 44.3407 36.7631 44.3407C36.8802 44.3407 36.9857 44.3089 37.0796 44.2438C37.175 44.1773 37.243 44.0762 37.2878 43.9374L39.8171 36.0113C39.8388 35.9448 39.8489 35.8798 39.8489 35.8148C39.8489 35.6616 39.7925 35.5373 39.6812 35.439ZM34.9796 42.0629L31.1683 40.4643L31.1307 40.4484L31.2449 40.4007L34.9796 38.8355C35.1617 38.7545 35.2528 38.6201 35.2528 38.4308C35.2528 38.2863 35.2036 38.1677 35.1054 38.0767C35.0071 37.9856 34.8857 37.9408 34.7397 37.9408C34.653 37.9408 34.5619 37.9596 34.468 37.9957L33.4519 38.4308L30.4225 39.7287C30.2693 39.7879 30.1494 39.8819 30.0627 40.012C29.9745 40.1435 29.9311 40.2895 29.9311 40.4484C29.9311 40.6161 29.9745 40.7635 30.0627 40.8907C30.1335 40.9948 30.2274 41.0786 30.3445 41.1422C30.3691 41.1552 30.3951 41.1682 30.4225 41.1798L34.468 42.9026C34.5475 42.9387 34.6385 42.9561 34.7397 42.9561C34.8857 42.9561 35.0071 42.9113 35.1054 42.8202C35.2036 42.7291 35.2528 42.6121 35.2528 42.4661C35.2528 42.2768 35.1617 42.1423 34.9796 42.0629ZM48.7101 32.8172C48.6046 32.7189 48.447 32.6698 48.236 32.6698H45.99C45.779 32.6698 45.62 32.7189 45.5159 32.8172C45.4104 32.9155 45.357 33.0484 45.357 33.2146C45.357 33.3823 45.4104 33.5138 45.5159 33.6078C45.62 33.7017 45.779 33.7494 45.99 33.7494H48.236C48.447 33.7494 48.6046 33.7017 48.7101 33.6078C48.8156 33.5138 48.8676 33.3823 48.8676 33.2146C48.8676 33.0484 48.8156 32.9155 48.7101 32.8172ZM43.9781 32.8172C43.8726 32.7189 43.7151 32.6698 43.5041 32.6698H41.258C41.047 32.6698 40.888 32.7189 40.784 32.8172C40.6785 32.9155 40.625 33.0484 40.625 33.2146C40.625 33.3823 40.6785 33.5138 40.784 33.6078C40.888 33.7017 41.047 33.7494 41.258 33.7494H43.5041C43.7151 33.7494 43.8726 33.7017 43.9781 33.6078C44.0836 33.5138 44.1357 33.3823 44.1357 33.2146C44.1357 33.0484 44.0836 32.9155 43.9781 32.8172ZM39.2462 32.8172C39.1407 32.7189 38.9817 32.6698 38.7721 32.6698H36.5261C36.3151 32.6698 36.1561 32.7189 36.0506 32.8172C35.9451 32.9155 35.893 33.0484 35.893 33.2146C35.893 33.3823 35.9451 33.5138 36.0506 33.6078C36.1561 33.7017 36.3151 33.7494 36.5261 33.7494H38.7721C38.9817 33.7494 39.1407 33.7017 39.2462 33.6078C39.3517 33.5138 39.4037 33.3823 39.4037 33.2146C39.4037 33.0484 39.3517 32.9155 39.2462 32.8172ZM34.5142 32.8172C34.4087 32.7189 34.2497 32.6698 34.0402 32.6698H31.7927C31.5817 32.6698 31.4241 32.7189 31.3186 32.8172C31.2131 32.9155 31.1611 33.0484 31.1611 33.2146C31.1611 33.3823 31.2131 33.5138 31.3186 33.6078C31.4241 33.7017 31.5817 33.7494 31.7927 33.7494H34.0402C34.2497 33.7494 34.4087 33.7017 34.5142 33.6078C34.6183 33.5138 34.6718 33.3823 34.6718 33.2146C34.6718 33.0484 34.6183 32.9155 34.5142 32.8172ZM29.7823 32.8172C29.6768 32.7189 29.5178 32.6698 29.3068 32.6698H27.0607C26.8497 32.6698 26.6922 32.7189 26.5867 32.8172C26.4812 32.9155 26.4291 33.0484 26.4291 33.2146C26.4291 33.3823 26.4812 33.5138 26.5867 33.6078C26.6922 33.7017 26.8497 33.7494 27.0607 33.7494H29.3068C29.5178 33.7494 29.6768 33.7017 29.7823 33.6078C29.8863 33.5138 29.9398 33.3823 29.9398 33.2146C29.9398 33.0484 29.8863 32.9155 29.7823 32.8172ZM48.7101 27.7557C48.6046 27.6574 48.447 27.6083 48.236 27.6083H45.99C45.779 27.6083 45.62 27.6574 45.5159 27.7557C45.4104 27.854 45.357 27.987 45.357 28.1532C45.357 28.3208 45.4104 28.4523 45.5159 28.5463C45.62 28.6402 45.779 28.6879 45.99 28.6879H48.236C48.447 28.6879 48.6046 28.6402 48.7101 28.5463C48.8156 28.4523 48.8676 28.3208 48.8676 28.1532C48.8676 27.987 48.8156 27.854 48.7101 27.7557ZM43.9781 27.7557C43.8726 27.6574 43.7151 27.6083 43.5041 27.6083H41.258C41.047 27.6083 40.888 27.6574 40.784 27.7557C40.6785 27.854 40.625 27.987 40.625 28.1532C40.625 28.3208 40.6785 28.4523 40.784 28.5463C40.888 28.6402 41.047 28.6879 41.258 28.6879H43.5041C43.7151 28.6879 43.8726 28.6402 43.9781 28.5463C44.0836 28.4523 44.1357 28.3208 44.1357 28.1532C44.1357 27.987 44.0836 27.854 43.9781 27.7557ZM39.2462 27.7557C39.1407 27.6574 38.9817 27.6083 38.7721 27.6083H36.5261C36.3151 27.6083 36.1561 27.6574 36.0506 27.7557C35.9451 27.854 35.893 27.987 35.893 28.1532C35.893 28.3208 35.9451 28.4523 36.0506 28.5463C36.1561 28.6402 36.3151 28.6879 36.5261 28.6879H38.7721C38.9817 28.6879 39.1407 28.6402 39.2462 28.5463C39.3517 28.4523 39.4037 28.3208 39.4037 28.1532C39.4037 27.987 39.3517 27.854 39.2462 27.7557ZM34.5142 27.7557C34.4087 27.6574 34.2497 27.6083 34.0402 27.6083H31.7927C31.5817 27.6083 31.4241 27.6574 31.3186 27.7557C31.2131 27.854 31.1611 27.987 31.1611 28.1532C31.1611 28.3208 31.2131 28.4523 31.3186 28.5463C31.4241 28.6402 31.5817 28.6879 31.7927 28.6879H34.0402C34.2497 28.6879 34.4087 28.6402 34.5142 28.5463C34.6183 28.4523 34.6718 28.3208 34.6718 28.1532C34.6718 27.987 34.6183 27.854 34.5142 27.7557ZM29.7823 27.7557C29.6768 27.6574 29.5178 27.6083 29.3068 27.6083H27.0607C26.8497 27.6083 26.6922 27.6574 26.5867 27.7557C26.4812 27.854 26.4291 27.987 26.4291 28.1532C26.4291 28.3208 26.4812 28.4523 26.5867 28.5463C26.6922 28.6402 26.8497 28.6879 27.0607 28.6879H29.3068C29.5178 28.6879 29.6768 28.6402 29.7823 28.5463C29.8863 28.4523 29.9398 28.3208 29.9398 28.1532C29.9398 27.987 29.8863 27.854 29.7823 27.7557ZM40.7912 22.4485C40.7045 22.3184 40.5845 22.223 40.4313 22.1652L36.3859 20.4323C36.292 20.3947 36.2009 20.3774 36.1127 20.3774C35.9682 20.3774 35.8468 20.4222 35.7485 20.5132C35.6502 20.6043 35.6011 20.7228 35.6011 20.8673C35.6011 21.0567 35.6922 21.1911 35.8743 21.2706L39.7231 22.885L35.8743 24.4994C35.6922 24.5789 35.6011 24.7133 35.6011 24.9027C35.6011 25.0472 35.6502 25.1657 35.7485 25.2568C35.8468 25.3478 35.9682 25.3926 36.1127 25.3926C36.2154 25.3926 36.3064 25.3753 36.3859 25.3377L40.4313 23.6149C40.5845 23.5498 40.7045 23.4544 40.7912 23.3273C40.8779 23.2001 40.9213 23.0527 40.9213 22.885C40.9213 22.7246 40.8779 22.58 40.7912 22.4485ZM34.2223 22.6942C34.1168 22.5959 33.9578 22.5468 33.7468 22.5468H31.5007C31.2897 22.5468 31.1322 22.5959 31.0267 22.6942C30.9212 22.7925 30.8691 22.9255 30.8691 23.0917C30.8691 23.2593 30.9212 23.3909 31.0267 23.4848C31.1322 23.5787 31.2897 23.6264 31.5007 23.6264H33.7468C33.9578 23.6264 34.1168 23.5787 34.2223 23.4848C34.3263 23.3909 34.3798 23.2593 34.3798 23.0917C34.3798 22.9255 34.3263 22.7925 34.2223 22.6942ZM29.4903 22.6942C29.3848 22.5959 29.2258 22.5468 29.0148 22.5468H26.7688C26.5578 22.5468 26.4002 22.5959 26.2947 22.6942C26.1892 22.7925 26.1372 22.9255 26.1372 23.0917C26.1372 23.2593 26.1892 23.3909 26.2947 23.4848C26.4002 23.5787 26.5578 23.6264 26.7688 23.6264H29.0148C29.2258 23.6264 29.3848 23.5787 29.4903 23.4848C29.5944 23.3909 29.6479 23.2593 29.6479 23.0917C29.6479 22.9255 29.5944 22.7925 29.4903 22.6942ZM24.7569 22.6942C24.6514 22.5959 24.4939 22.5468 24.2829 22.5468H22.0368C21.8258 22.5468 21.6683 22.5959 21.5628 22.6942C21.4573 22.7925 21.4052 22.9255 21.4052 23.0917C21.4052 23.2593 21.4573 23.3909 21.5628 23.4848C21.6683 23.5787 21.8258 23.6264 22.0368 23.6264H24.2829C24.4939 23.6264 24.6514 23.5787 24.7569 23.4848C24.8624 23.3909 24.9159 23.2593 24.9159 23.0917C24.9159 22.9255 24.8624 22.7925 24.7569 22.6942ZM19.9108 24.4994L16.0619 22.885L19.9108 21.2706C20.0929 21.1911 20.1839 21.0567 20.1839 20.8673C20.1839 20.7228 20.1348 20.6043 20.0365 20.5132C19.9382 20.4222 19.8168 20.3774 19.6709 20.3774C19.5841 20.3774 19.4931 20.3947 19.3977 20.4323L15.3537 22.1652C15.2005 22.223 15.0805 22.3184 14.9938 22.4485C14.9057 22.58 14.8623 22.7246 14.8623 22.885C14.8623 23.0527 14.9057 23.2001 14.9938 23.3273C15.0805 23.4544 15.2005 23.5498 15.3537 23.6149L19.3977 25.3377C19.4786 25.3753 19.5697 25.3926 19.6709 25.3926C19.8168 25.3926 19.9382 25.3478 20.0365 25.2568C20.1348 25.1657 20.1839 25.0472 20.1839 24.9027C20.1839 24.7133 20.0929 24.5789 19.9108 24.4994Z" fill="#DECEE5"/>
<path d="M19.9108 21.2706L16.0619 22.885L19.9108 24.4994C20.0929 24.5789 20.1839 24.7133 20.1839 24.9027C20.1839 25.0472 20.1348 25.1657 20.0365 25.2568C19.9382 25.3478 19.8168 25.3926 19.6709 25.3926C19.5697 25.3926 19.4786 25.3753 19.3977 25.3377L15.3537 23.6149C15.2005 23.5498 15.0805 23.4545 14.9938 23.3273C14.9057 23.2001 14.8623 23.0527 14.8623 22.885C14.8623 22.7246 14.9057 22.58 14.9938 22.4485C15.0805 22.3184 15.2005 22.223 15.3537 22.1652L19.3977 20.4323C19.4931 20.3947 19.5841 20.3774 19.6709 20.3774C19.8168 20.3774 19.9382 20.4222 20.0365 20.5132C20.1348 20.6043 20.1839 20.7228 20.1839 20.8673C20.1839 21.0567 20.0929 21.1911 19.9108 21.2706Z" fill="white"/>
<path d="M24.757 22.6942C24.8625 22.7925 24.9159 22.9254 24.9159 23.0916C24.9159 23.2593 24.8625 23.3908 24.757 23.4848C24.6514 23.5787 24.4939 23.6264 24.2829 23.6264H22.0369C21.8259 23.6264 21.6683 23.5787 21.5628 23.4848C21.4573 23.3908 21.4053 23.2593 21.4053 23.0916C21.4053 22.9254 21.4573 22.7925 21.5628 22.6942C21.6683 22.5959 21.8259 22.5468 22.0369 22.5468H24.2829C24.4939 22.5468 24.6514 22.5959 24.757 22.6942Z" fill="white"/>
<path d="M26.7691 23.6264C26.558 23.6264 26.4005 23.5787 26.295 23.4848C26.1895 23.3908 26.1375 23.2593 26.1375 23.0916C26.1375 22.9254 26.1895 22.7925 26.295 22.6942C26.4005 22.5959 26.558 22.5468 26.7691 22.5468H29.0151C29.2261 22.5468 29.3851 22.5959 29.4906 22.6942C29.5946 22.7925 29.6481 22.9254 29.6481 23.0916C29.6481 23.2593 29.5946 23.3908 29.4906 23.4848C29.3851 23.5787 29.2261 23.6264 29.0151 23.6264H26.7691Z" fill="white"/>
<path d="M29.9399 33.2146C29.9399 33.3823 29.8864 33.5138 29.7823 33.6077C29.6768 33.7017 29.5178 33.7494 29.3068 33.7494H27.0608C26.8498 33.7494 26.6922 33.7017 26.5867 33.6077C26.4812 33.5138 26.4292 33.3823 26.4292 33.2146C26.4292 33.0484 26.4812 32.9154 26.5867 32.8172C26.6922 32.7189 26.8498 32.6697 27.0608 32.6697H29.3068C29.5178 32.6697 29.6768 32.7189 29.7823 32.8172C29.8864 32.9154 29.9399 33.0484 29.9399 33.2146Z" fill="white"/>
<path d="M29.3068 27.6083C29.5178 27.6083 29.6768 27.6574 29.7823 27.7557C29.8864 27.854 29.9399 27.9869 29.9399 28.1532C29.9399 28.3208 29.8864 28.4523 29.7823 28.5463C29.6768 28.6402 29.5178 28.6879 29.3068 28.6879H27.0608C26.8498 28.6879 26.6922 28.6402 26.5867 28.5463C26.4812 28.4523 26.4292 28.3208 26.4292 28.1532C26.4292 27.9869 26.4812 27.854 26.5867 27.7557C26.6922 27.6574 26.8498 27.6083 27.0608 27.6083H29.3068Z" fill="white"/>
<path d="M30.4223 39.7286L33.4517 38.4307C32.7348 39.1086 31.9992 39.7647 31.2447 40.4007C31.2201 40.4224 31.1941 40.4426 31.1681 40.4643C30.8964 40.6941 30.6218 40.9196 30.3443 41.1421C30.2272 41.0785 30.1333 40.9947 30.0624 40.8906C29.9743 40.7635 29.9309 40.616 29.9309 40.4484C29.9309 40.2894 29.9743 40.1434 30.0624 40.0119C30.1492 39.8818 30.2691 39.7879 30.4223 39.7286Z" fill="white"/>
<path d="M31.0269 23.4848C30.9214 23.3908 30.8694 23.2593 30.8694 23.0916C30.8694 22.9254 30.9214 22.7925 31.0269 22.6942C31.1324 22.5959 31.29 22.5468 31.501 22.5468H33.747C33.958 22.5468 34.117 22.5959 34.2225 22.6942C34.3266 22.7925 34.38 22.9254 34.38 23.0916C34.38 23.2593 34.3266 23.3908 34.2225 23.4848C34.117 23.5787 33.958 23.6264 33.747 23.6264H31.501C31.29 23.6264 31.1324 23.5787 31.0269 23.4848Z" fill="white"/>
<path d="M34.5143 32.8172C34.6183 32.9154 34.6718 33.0484 34.6718 33.2146C34.6718 33.3823 34.6183 33.5138 34.5143 33.6077C34.4087 33.7017 34.2498 33.7494 34.0402 33.7494H31.7927C31.5817 33.7494 31.4242 33.7017 31.3187 33.6077C31.2132 33.5138 31.1611 33.3823 31.1611 33.2146C31.1611 33.0484 31.2132 32.9154 31.3187 32.8172C31.4242 32.7189 31.5817 32.6697 31.7927 32.6697H34.0402C34.2498 32.6697 34.4087 32.7189 34.5143 32.8172Z" fill="white"/>
<path d="M34.5143 27.7557C34.6183 27.854 34.6718 27.9869 34.6718 28.1532C34.6718 28.3208 34.6183 28.4523 34.5143 28.5463C34.4087 28.6402 34.2498 28.6879 34.0402 28.6879H31.7927C31.5817 28.6879 31.4242 28.6402 31.3187 28.5463C31.2132 28.4523 31.1611 28.3208 31.1611 28.1532C31.1611 27.9869 31.2132 27.854 31.3187 27.7557C31.4242 27.6574 31.5817 27.6083 31.7927 27.6083H34.0402C34.2498 27.6083 34.4087 27.6574 34.5143 27.7557Z" fill="white"/>
<path d="M36.5264 32.6697H38.7232C38.4371 33.034 38.1451 33.3938 37.8488 33.7494H36.5264C36.3153 33.7494 36.1564 33.7017 36.0508 33.6077C35.9453 33.5138 35.8933 33.3823 35.8933 33.2146C35.8933 33.0484 35.9453 32.9154 36.0508 32.8172C36.1564 32.7189 36.3153 32.6697 36.5264 32.6697Z" fill="white"/>
<path d="M39.2464 27.7557C39.352 27.854 39.404 27.9869 39.404 28.1532C39.404 28.3208 39.352 28.4523 39.2464 28.5463C39.1409 28.6402 38.982 28.6879 38.7724 28.6879H36.5264C36.3153 28.6879 36.1564 28.6402 36.0508 28.5463C35.9453 28.4523 35.8933 28.3208 35.8933 28.1532C35.8933 27.9869 35.9453 27.854 36.0508 27.7557C36.1564 27.6574 36.3153 27.6083 36.5264 27.6083H38.7724C38.982 27.6083 39.1409 27.6574 39.2464 27.7557Z" fill="white"/>
<path d="M40.4311 23.6149L36.3856 25.3377C36.3061 25.3753 36.2151 25.3926 36.1125 25.3926C35.9679 25.3926 35.8465 25.3478 35.7483 25.2568C35.65 25.1657 35.6008 25.0472 35.6008 24.9027C35.6008 24.7133 35.6919 24.5789 35.874 24.4994L39.7229 22.885L35.874 21.2706C35.6919 21.1911 35.6008 21.0567 35.6008 20.8673C35.6008 20.7228 35.65 20.6043 35.7483 20.5132C35.8465 20.4222 35.9679 20.3774 36.1125 20.3774C36.2006 20.3774 36.2917 20.3947 36.3856 20.4323L40.4311 22.1652C40.5843 22.223 40.7042 22.3184 40.7909 22.4485C40.8777 22.58 40.921 22.7246 40.921 22.885C40.921 23.0527 40.8777 23.2001 40.7909 23.3273C40.7042 23.4545 40.5843 23.5498 40.4311 23.6149Z" fill="white"/>
<path d="M42.2527 27.6083C42.0315 27.971 41.8046 28.3309 41.5719 28.6879H41.2583C41.0473 28.6879 40.8883 28.6402 40.7842 28.5463C40.6787 28.4523 40.6252 28.3208 40.6252 28.1532C40.6252 27.9869 40.6787 27.854 40.7842 27.7557C40.8883 27.6574 41.0473 27.6083 41.2583 27.6083H42.2527Z" fill="white"/>
<defs>
<linearGradient id="paint0_linear_8_1463" x1="37" y1="0" x2="37" y2="74" gradientUnits="userSpaceOnUse">
<stop stop-color="#FF4655"/>
<stop offset="1" stop-color="#FF5E5E"/>
</linearGradient>
</defs>
</svg>
